<?xml version="1.0" encoding="UTF-8"?>
<svg width="447px" height="377px" viewBox="0 0 447 377" version="1.1" xmlns="http://www.w3.org/2000/svg" xmlns:xlink="http://www.w3.org/1999/xlink">
    <title>编组 9</title>
    <g id="页面-1" stroke="none" stroke-width="1" fill="none" fill-rule="evenodd">
        <g id="编组-9" transform="translate(7.000000, 8.866251)" stroke="#000000">
            <path d="M-5.82645043e-13,258.6792 L107.399044,209.18403 C74.8622205,192.630722 60.5852826,177.933158 64.56823,165.091338 C70.5426511,145.828607 94.3833169,158.66542 111.271066,165.091338 C103.769434,124.984691 107.105888,112.54234 120.427252,107.943924 C133.748617,103.345507 148.578812,118.537168 152.572358,148.037795 C158.441312,123.905332 176.280522,105.791566 190.928939,114.848449 C205.577356,123.905332 195.186811,152.932996 186.868817,160.095084 C212.747421,156.51109 243.333441,167.775352 249.363363,217.270522 C227.997456,195.876364 200.861069,200.450969 193.000931,217.270522 C185.140792,234.090075 194.570529,254.13785 212.747421,255.441177 C236.997657,257.179976 246.958509,239.683299 250.687512,230.840994 C255.58185,249.252444 255.935993,289.395875 205.610628,305.790028 C187.58796,311.0118 169.908537,310.376182 152.572358,303.883175 L58.4692756,361.046401" id="路径-30" stroke-width="13" fill="#F9DED9" stroke-linecap="round" stroke-linejoin="round"></path>
            <path d="M331.281608,36.6635479 C321.11736,29.82139 304.069902,33.9071999 292.387892,48.092641 C280.705881,62.278082 277.279278,79.809636 285.804648,91.4081848 C294.330019,103.006734 316.215123,100.187151 328.83049,83.7540495 C341.445856,67.3209476 341.445856,43.5057059 331.281608,36.6635479 Z" id="路径-31" stroke-width="15"></path>
            <line x1="377.486552" y1="0" x2="368.775493" y2="114.042954" id="路径-32" stroke-width="15" stroke-linecap="round"></line>
            <path d="M416.276741,33.1619648 C413.343751,35.9727254 400.413688,45.9651365 377.486552,63.1391982 L432.190408,97.9298622" id="路径-33" stroke-width="15" stroke-linecap="round"></path>
        </g>
    </g>
</svg>